<?xml version="1.0" encoding="UTF-8" standalone="no"?>
<svg xmlns="http://www.w3.org/2000/svg" viewBox="0 0 1130 317.052" fill="currentColor" role="img">
  <title>Curfee</title>
  <desc>Curfee logo: segmented C mark with hand-drawn CURFEE wordmark in heavy geometric grotesque style.</desc>
  <g id="mark">
    <path d="m 0,0 -3.051,2.221 -17.86,12.973 c -0.345,0.247 -0.701,0.464 -1.066,0.652 -3.545,1.836 -7.997,0.859 -10.426,-2.478 l -32.886,-45.257 c -2.409,-3.318 -1.975,-7.859 0.849,-10.653 -10.213,-5.861 -21.717,-9.73 -33.961,-11.065 0.724,3.892 -1.525,7.811 -5.391,9.068 l -53.633,17.426 c -3.856,1.253 -7.968,-0.584 -9.678,-4.141 -8.824,8.049 -16.012,17.85 -21.005,28.854 3.929,0.51 6.966,3.862 6.966,7.93 v 56.393 c 0,4.068 -3.036,7.419 -6.965,7.93 4.993,11.003 12.181,20.814 21.005,28.853 1.71,-3.556 5.821,-5.393 9.677,-4.14 l 53.633,17.426 c 3.869,1.257 6.118,5.182 5.389,9.077 12.245,-1.335 23.75,-5.204 33.963,-11.065 -2.824,-2.804 -3.258,-7.346 -0.849,-10.663 l 32.886,-45.257 c 2.429,-3.337 6.881,-4.315 10.426,-2.478 0.365,0.187 0.721,0.414 1.066,0.661 L -3.061,65.23 0,67.451 c 3.683,2.676 4.492,7.82 1.827,11.502 l -32.887,45.258 c -2.676,3.672 -7.819,4.492 -11.492,1.816 l -3.09,-2.241 c -17.08,11.867 -37.685,19.005 -59.899,19.499 h -0.002 l -1.235,3.802 c -1.367,4.205 -5.883,6.506 -10.087,5.14 L -170.498,134.8 c -4.205,-1.366 -6.506,-5.882 -5.14,-10.086 l 1.252,-3.852 c -16.872,-12.874 -29.904,-30.536 -37.061,-50.932 -0.001,-0.001 -0.001,-0.001 -0.001,-0.002 h -3.994 c -4.421,0 -8.005,-3.584 -8.005,-8.005 V 5.53 c 0,-4.421 3.584,-8.005 8.005,-8.005 h 3.994 c 0,-10e-4 0,-0.002 0.001,-0.003 7.157,-20.397 20.19,-38.05 37.062,-50.924 0.001,0 0.001,-10e-4 0.001,-10e-4 l -1.253,-3.858 c -1.367,-4.204 0.935,-8.72 5.139,-10.087 l 53.633,-17.426 c 4.205,-1.366 8.721,0.935 10.087,5.14 l 1.242,3.82 h 0.005 c 22.214,0.484 42.799,7.612 59.879,19.489 l 3.09,-2.251 c 3.683,-2.675 8.826,-1.856 11.502,1.827 L 1.817,-11.502 C 4.492,-7.819 3.683,-2.675 0,0" transform="matrix(1.3333333,0,0,-1.3333333,297.929,203.495)"/>
  </g>
  <g id="wordmark" transform="matrix(1.001135,0,0,1.001135,156,62.4168)">
    <path d="M 185 0 L 185 128 C 185 165.45927 220.66918 192 253 192 C 285.33082 192 321 165.45927 321 128 L 321 0 L 288 0 L 288 128 C 288 142.79 271.20 159 253 159 C 234.80 159 218 142.79 218 128 L 218 0 L 185 0 z M 356 0 L 356 192 L 389 192 L 389 128 L 402 128 L 452 192 L 494 192 L 444 128 C 510 128 510 0 444 0 L 356 0 z M 389 33 L 437 33 C 469 33 469 95 437 95 L 389 95 L 389 33 z M 534 0 L 534 192 L 567 192 L 567 112.5 L 636 112.5 L 636 79.5 L 567 79.5 L 567 33 L 656 33 L 656 0 L 534 0 z M 692 0 L 692 192 L 814 192 L 814 159 L 725 159 L 725 112.5 L 794 112.5 L 794 79.5 L 725 79.5 L 725 33 L 814 33 L 814 0 L 692 0 z M 850 0 L 850 192 L 972 192 L 972 159 L 883 159 L 883 112.5 L 952 112.5 L 952 79.5 L 883 79.5 L 883 33 L 972 33 L 972 0 L 850 0 z"/>
  </g>
</svg>
