<?xml version="1.0" encoding="UTF-8"?>
<svg xmlns="http://www.w3.org/2000/svg" xmlns:xlink="http://www.w3.org/1999/xlink" width="483" height="100" viewBox="157 36 483 100">
<path fill-rule="nonzero" fill="rgb(0%, 20%, 40%)" fill-opacity="1" d="M 204.363281 131.796875 C 195.714844 131.796875 188.261719 129.917969 182.003906 126.15625 C 175.742188 122.398438 170.917969 117.136719 167.535156 110.375 C 164.160156 103.617188 162.472656 95.757812 162.472656 86.796875 C 162.472656 77.839844 164.160156 69.980469 167.535156 63.21875 C 170.917969 56.460938 175.742188 51.199219 182.003906 47.4375 C 188.261719 43.679688 195.714844 41.796875 204.363281 41.796875 C 214.277344 41.796875 222.605469 44.261719 229.347656 49.1875 C 236.085938 54.105469 240.835938 60.761719 243.597656 69.15625 L 227.160156 73.71875 C 225.554688 68.480469 222.851562 64.414062 219.050781 61.515625 C 215.257812 58.609375 210.363281 57.15625 204.363281 57.15625 C 198.882812 57.15625 194.308594 58.382812 190.644531 60.828125 C 186.988281 63.265625 184.238281 66.703125 182.394531 71.140625 C 180.558594 75.578125 179.644531 80.796875 179.644531 86.796875 C 179.644531 92.796875 180.558594 98.023438 182.394531 102.46875 C 184.238281 106.90625 186.988281 110.34375 190.644531 112.78125 C 194.308594 115.21875 198.882812 116.4375 204.363281 116.4375 C 210.363281 116.4375 215.257812 114.980469 219.050781 112.0625 C 222.851562 109.148438 225.554688 105.085938 227.160156 99.875 L 243.597656 104.4375 C 240.835938 112.84375 236.085938 119.507812 229.347656 124.421875 C 222.605469 129.339844 214.277344 131.796875 204.363281 131.796875 Z M 248.398438 130 "/>
<path fill-rule="nonzero" fill="rgb(0%, 20%, 40%)" fill-opacity="1" d="M 295.960938 131.796875 C 289 131.796875 282.882812 130.390625 277.601562 127.578125 C 272.320312 124.757812 268.199219 120.789062 265.242188 115.671875 C 262.28125 110.546875 260.804688 104.523438 260.804688 97.59375 L 260.804688 43.71875 L 277.351562 43.59375 L 277.351562 97.484375 C 277.351562 100.320312 277.828125 102.898438 278.789062 105.21875 C 279.757812 107.542969 281.089844 109.542969 282.789062 111.21875 C 284.484375 112.898438 286.464844 114.1875 288.726562 115.09375 C 290.984375 115.992188 293.398438 116.4375 295.960938 116.4375 C 298.59375 116.4375 301.042969 115.980469 303.304688 115.0625 C 305.5625 114.148438 307.53125 112.851562 309.210938 111.171875 C 310.898438 109.484375 312.210938 107.484375 313.148438 105.171875 C 314.085938 102.851562 314.554688 100.289062 314.554688 97.484375 L 314.554688 43.59375 L 331.117188 43.59375 L 331.117188 97.59375 C 331.117188 104.523438 329.636719 110.546875 326.679688 115.671875 C 323.71875 120.789062 319.601562 124.757812 314.320312 127.578125 C 309.039062 130.390625 302.917969 131.796875 295.960938 131.796875 Z M 339.519531 130 "/>
<path fill-rule="nonzero" fill="rgb(0%, 20%, 40%)" fill-opacity="1" d="M 351.925781 130 L 351.925781 43.59375 L 388.394531 43.59375 C 389.238281 43.59375 390.367188 43.625 391.785156 43.6875 C 393.210938 43.75 394.480469 43.882812 395.597656 44.078125 C 400.753906 44.882812 404.980469 46.585938 408.285156 49.1875 C 411.585938 51.78125 414.019531 55.054688 415.582031 59 C 417.144531 62.9375 417.925781 67.324219 417.925781 72.15625 C 417.925781 79.398438 416.121094 85.589844 412.519531 90.734375 C 408.914062 95.871094 403.273438 99.039062 395.597656 100.234375 L 388.394531 100.71875 L 368.238281 100.71875 L 368.238281 130 Z M 400.644531 130 L 383.597656 94.84375 L 400.394531 91.59375 L 419.113281 130 Z M 368.238281 85.484375 L 387.675781 85.484375 C 388.519531 85.484375 389.441406 85.445312 390.441406 85.359375 C 391.441406 85.277344 392.363281 85.117188 393.207031 84.875 C 395.402344 84.28125 397.101562 83.277344 398.300781 81.859375 C 399.496094 80.433594 400.324219 78.851562 400.785156 77.109375 C 401.242188 75.371094 401.472656 73.71875 401.472656 72.15625 C 401.472656 70.59375 401.242188 68.945312 400.785156 67.203125 C 400.324219 65.464844 399.496094 63.886719 398.300781 62.46875 C 397.101562 61.054688 395.402344 60.042969 393.207031 59.4375 C 392.363281 59.199219 391.441406 59.042969 390.441406 58.96875 C 389.441406 58.886719 388.519531 58.84375 387.675781 58.84375 L 368.238281 58.84375 Z M 423.917969 130 "/>
<path fill-rule="nonzero" fill="rgb(0%, 20%, 40%)" fill-opacity="1" d="M 436.328125 130 L 436.328125 43.59375 L 489.125 43.59375 L 489.125 59.921875 L 452.640625 59.921875 L 452.640625 78.640625 L 481.921875 78.640625 L 481.921875 94.953125 L 452.640625 94.953125 L 452.640625 130 Z M 491.523438 130 "/>
<path fill-rule="nonzero" fill="rgb(0%, 20%, 40%)" fill-opacity="1" d="M 503.925781 130 L 503.925781 43.59375 L 560.316406 43.59375 L 560.316406 58.84375 L 520.238281 58.84375 L 520.238281 77.3125 L 553.113281 77.3125 L 553.113281 92.5625 L 520.238281 92.5625 L 520.238281 114.765625 L 560.316406 114.765625 L 560.316406 130 Z M 566.320312 130 "/>
<path fill-rule="nonzero" fill="rgb(0%, 20%, 40%)" fill-opacity="1" d="M 578.726562 130 L 578.726562 43.59375 L 635.117188 43.59375 L 635.117188 58.84375 L 595.039062 58.84375 L 595.039062 77.3125 L 627.914062 77.3125 L 627.914062 92.5625 L 595.039062 92.5625 L 595.039062 114.765625 L 635.117188 114.765625 L 635.117188 130 Z M 641.121094 130 "/>
</svg>
