<?xml version="1.0" encoding="UTF-8" standalone="no"?>
<svg xmlns="http://www.w3.org/2000/svg" viewBox="163.03 -30.52 1223.97 364.61" fill="currentColor" role="img">
  <title>Curfee</title>
  <desc>Curfee-Logo: segmentiertes C-Zeichen, gefolgt vom Inter-Wortmark „urfee" in Kleinbuchstaben.</desc>
  <g id="mark">
    <path d="m 0,0 -3.051,2.221 -17.86,12.973 c -0.345,0.247 -0.701,0.464 -1.066,0.652 -3.545,1.836 -7.997,0.859 -10.426,-2.478 l -32.886,-45.257 c -2.409,-3.318 -1.975,-7.859 0.849,-10.653 -10.213,-5.861 -21.717,-9.73 -33.961,-11.065 0.724,3.892 -1.525,7.811 -5.391,9.068 l -53.633,17.426 c -3.856,1.253 -7.968,-0.584 -9.678,-4.141 -8.824,8.049 -16.012,17.85 -21.005,28.854 3.929,0.51 6.966,3.862 6.966,7.93 v 56.393 c 0,4.068 -3.036,7.419 -6.965,7.93 4.993,11.003 12.181,20.814 21.005,28.853 1.71,-3.556 5.821,-5.393 9.677,-4.14 l 53.633,17.426 c 3.869,1.257 6.118,5.182 5.389,9.077 12.245,-1.335 23.75,-5.204 33.963,-11.065 -2.824,-2.804 -3.258,-7.346 -0.849,-10.663 l 32.886,-45.257 c 2.429,-3.337 6.881,-4.315 10.426,-2.478 0.365,0.187 0.721,0.414 1.066,0.661 L -3.061,65.23 0,67.451 c 3.683,2.676 4.492,7.82 1.827,11.502 l -32.887,45.258 c -2.676,3.672 -7.819,4.492 -11.492,1.816 l -3.09,-2.241 c -17.08,11.867 -37.685,19.005 -59.899,19.499 h -0.002 l -1.235,3.802 c -1.367,4.205 -5.883,6.506 -10.087,5.14 L -170.498,134.8 c -4.205,-1.366 -6.506,-5.882 -5.14,-10.086 l 1.252,-3.852 c -16.872,-12.874 -29.904,-30.536 -37.061,-50.932 -0.001,-0.001 -0.001,-0.001 -0.001,-0.002 h -3.994 c -4.421,0 -8.005,-3.584 -8.005,-8.005 V 5.53 c 0,-4.421 3.584,-8.005 8.005,-8.005 h 3.994 c 0,-10e-4 0,-0.002 0.001,-0.003 7.157,-20.397 20.19,-38.05 37.062,-50.924 0.001,0 0.001,-10e-4 0.001,-10e-4 l -1.253,-3.858 c -1.367,-4.204 0.935,-8.72 5.139,-10.087 l 53.633,-17.426 c 4.205,-1.366 8.721,0.935 10.087,5.14 l 1.242,3.82 h 0.005 c 22.214,0.484 42.799,7.612 59.879,19.489 l 3.09,-2.251 c 3.683,-2.675 8.826,-1.856 11.502,1.827 L 1.817,-11.502 C 4.492,-7.819 3.683,-2.675 0,0" transform="matrix(1.35,0,0,-1.35,485.33,197.32)"/>
  </g>
  <g id="wordmark" transform="translate(-79.185744,-79.18631)">
    <path id="letter-u" d="M459.279296875 -23.0400390625Q344.919189453125 -23.0400390625 263.25927734375 26.5Q181.599365234375 76.0400390625 138.5994873046875 169.1600341796875Q95.599609375 262.280029296875 95.599609375 392.39990234375V1056H440.40185546875V463.6806640625Q440.40185546875 370.76123046875 485.5015869140625 321.021484375Q530.601318359375 271.28173828125 612.120849609375 271.28173828125Q666.320556640625 271.28173828125 706.520263671875 293.921630859375Q746.719970703125 316.5615234375 768.6397705078125 363.4212646484375Q790.5595703125 410.281005859375 790.5595703125 482.08056640625V1056H1135.36181640625V0H795.319580078125V282.600341796875H846.359619140625Q796.6396484375 143.640380859375 704.1396484375 60.3001708984375Q611.6396484375 -23.0400390625 459.279296875 -23.0400390625Z" transform="matrix(0.128859,0,0,-0.128859,579.3697,315.0)"/>
    <path id="letter-r" d="M95.599609375 0V1056H429.36181640625V870.23974609375H431.841796875Q460.841796875 971.239990234375 522.32177734375 1015.5399169921875Q583.8017578125 1059.83984375 690.40185546875 1059.83984375Q717.9619140625 1059.83984375 740.501953125 1059.35986328125Q763.0419921875 1058.8798828125 783.68212890625 1058.39990234375V774.3984375Q765.322021484375 775.118408203125 725.421875 776.1983642578125Q685.521728515625 777.2783203125 647.76171875 777.2783203125Q586.7216796875 777.2783203125 539.76171875 749.518310546875Q492.8017578125 721.75830078125 466.601806640625 668.9383544921875Q440.40185546875 616.118408203125 440.40185546875 540.55859375V0Z" transform="matrix(0.128859,0,0,-0.128859,737.9952,315.0)"/>
    <path id="letter-f" d="M773.202392578125 1056V789.91845703125H18.800048828125V1056ZM211.360107421875 0V1172.55908203125Q211.360107421875 1280.4794921875 251.440185546875 1350.6796875Q291.520263671875 1420.8798828125 373.4005126953125 1455.43994140625Q455.28076171875 1490 580.561279296875 1490Q640.6416015625 1490 695.5819091796875 1490.0Q750.522216796875 1490 773.202392578125 1490V1223.91845703125Q758.88232421875 1223.91845703125 725.8623046875 1223.91845703125Q692.84228515625 1223.91845703125 668.002197265625 1223.91845703125Q607.082275390625 1223.91845703125 581.622314453125 1198.718505859375Q556.162353515625 1173.5185546875 556.162353515625 1113.11865234375V0Z" transform="matrix(0.128859,0,0,-0.128859,841.8556,315.0)"/>
    <path id="letter-e1" d="M596.200439453125 -24Q434.3603515625 -24 311.5601806640625 46.6199951171875Q188.760009765625 117.239990234375 120.4998779296875 242.1199951171875Q52.23974609375 367 52.23974609375 527.52001953125Q52.23974609375 689.280029296875 120.83984375 813.9000244140625Q189.43994140625 938.52001953125 309.9801025390625 1009.260009765625Q430.520263671875 1080 587.240478515625 1080Q706.360595703125 1080 804.3607177734375 1040.3800048828125Q902.36083984375 1000.760009765625 973.720947265625 927.9000244140625Q1045.0810546875 855.0400390625 1083.901123046875 755.4400634765625Q1122.72119140625 655.840087890625 1122.72119140625 535.880126953125V443.279541015625H163.52001953125V648.560302734375H961.600341796875L804.2392578125 606.680419921875Q804.2392578125 675.159912109375 779.0394287109375 724.259521484375Q753.839599609375 773.359130859375 707.39990234375 799.7589111328125Q660.960205078125 826.15869140625 595.6005859375 826.15869140625Q531.240966796875 826.15869140625 484.541259765625 799.7589111328125Q437.841552734375 773.359130859375 412.6417236328125 724.259521484375Q387.44189453125 675.159912109375 387.44189453125 606.680419921875V454.87939453125Q387.44189453125 384.639892578125 413.541748046875 332.560302734375Q439.6416015625 280.480712890625 489.2213134765625 252.3609619140625Q538.801025390625 224.2412109375 608.360595703125 224.2412109375Q659.040283203125 224.2412109375 698.9400634765625 238.2410888671875Q738.83984375 252.240966796875 766.0797119140625 277.9007568359375Q793.319580078125 303.560546875 805.51953125 338.040283203125H1115.361328125Q1096.121337890625 231.72021484375 1023.2412109375 150.2801513671875Q950.361083984375 68.840087890625 839.90087890625 22.4200439453125Q729.440673828125 -24 596.200439453125 -24Z" transform="matrix(0.128859,0,0,-0.128859,946.6181,315.0)"/>
    <path id="letter-e2" d="M596.200439453125 -24Q434.3603515625 -24 311.5601806640625 46.6199951171875Q188.760009765625 117.239990234375 120.4998779296875 242.1199951171875Q52.23974609375 367 52.23974609375 527.52001953125Q52.23974609375 689.280029296875 120.83984375 813.9000244140625Q189.43994140625 938.52001953125 309.9801025390625 1009.260009765625Q430.520263671875 1080 587.240478515625 1080Q706.360595703125 1080 804.3607177734375 1040.3800048828125Q902.36083984375 1000.760009765625 973.720947265625 927.9000244140625Q1045.0810546875 855.0400390625 1083.901123046875 755.4400634765625Q1122.72119140625 655.840087890625 1122.72119140625 535.880126953125V443.279541015625H163.52001953125V648.560302734375H961.600341796875L804.2392578125 606.680419921875Q804.2392578125 675.159912109375 779.0394287109375 724.259521484375Q753.839599609375 773.359130859375 707.39990234375 799.7589111328125Q660.960205078125 826.15869140625 595.6005859375 826.15869140625Q531.240966796875 826.15869140625 484.541259765625 799.7589111328125Q437.841552734375 773.359130859375 412.6417236328125 724.259521484375Q387.44189453125 675.159912109375 387.44189453125 606.680419921875V454.87939453125Q387.44189453125 384.639892578125 413.541748046875 332.560302734375Q439.6416015625 280.480712890625 489.2213134765625 252.3609619140625Q538.801025390625 224.2412109375 608.360595703125 224.2412109375Q659.040283203125 224.2412109375 698.9400634765625 238.2410888671875Q738.83984375 252.240966796875 766.0797119140625 277.9007568359375Q793.319580078125 303.560546875 805.51953125 338.040283203125H1115.361328125Q1096.121337890625 231.72021484375 1023.2412109375 150.2801513671875Q950.361083984375 68.840087890625 839.90087890625 22.4200439453125Q729.440673828125 -24 596.200439453125 -24Z" transform="matrix(0.128859,0,0,-0.128859,1097.5120,315.0)"/>
  </g>
</svg>
