<?xml version="1.0" encoding="UTF-8" standalone="no"?>
<svg xmlns="http://www.w3.org/2000/svg" viewBox="371.64 52.42 1433.25 429.44" fill="currentColor" role="img">
  <title>Curfee Consulting</title>
  <desc>Curfee Consulting wordmark.</desc>
  <g transform="translate(-79.185744,-79.18631)">
    <path d="M 0,0 H 25.46 C 25.37,-3.24 25.03,-6.24 24.44,-8.99 21.17,-24.45 10.17,-32.18 -8.57,-32.18 h -35.1 c -22.7,0 -34.05,11.35 -34.05,34.06 v 76.05 c 0,22.7 11.35,34.05 34.05,34.05 h 35.1 c 18.74,0 29.75,-7.73 33.01,-23.19 0.59,-2.75 0.93,-5.74 1.02,-8.98 H 0 c 0,5.99 -3.06,8.98 -9.19,8.98 h -33.85 c -6.13,0 -9.19,-2.99 -9.19,-8.98 V 0 c 0,-5.99 3.06,-8.99 9.19,-8.99 h 33.85 c 6.13,0 9.19,3 9.19,8.99" transform="matrix(1.3333333,0,0,-1.3333333,564.45547,290.91467)"/>
    <path d="M 0,0 V 110.106 H 25.489 V -1.881 c 0,-5.99 3.063,-8.983 9.194,-8.983 h 42.413 c 6.127,0 9.193,2.993 9.193,8.983 v 111.987 h 25.489 V 0 c 0,-22.706 -11.354,-34.055 -34.055,-34.055 H 34.057 C 11.351,-34.055 0,-22.706 0,0" transform="matrix(1.3333333,0,0,-1.3333333,618.39973,288.41107)"/>
    <path d="m 0,0 h 43.25 c 6.126,0 9.192,3.063 9.192,9.193 v 26.951 c 0,5.988 -3.066,8.985 -9.192,8.985 H 0 Z M -25.489,-75.841 V 68.32 h 69.365 c 22.702,0 34.055,-11.354 34.055,-34.055 V 10.656 c 0,-17.551 -6.966,-28.205 -20.893,-31.967 L 82.11,-70.409 78.975,-75.841 H 57.246 l -26.741,52.65 H 0 v -52.65 z" transform="matrix(1.3333333,0,0,-1.3333333,821.41587,232.6968)"/>
    <path d="M 0,0 V 144.161 H 96.943 V 120.97 H 25.489 V 80.02 H 90.676 V 56.829 H 25.489 V 0 Z" transform="matrix(1.3333333,0,0,-1.3333333,950.8976,333.818)"/>
    <path d="M 0,0 V 144.161 H 96.942 V 120.97 H 25.489 V 86.287 H 90.674 V 63.096 H 25.489 V 23.191 H 96.942 V 0 Z" transform="matrix(1.3333333,0,0,-1.3333333,1100.1588,333.818)"/>
    <path d="M 0,0 V 144.161 H 96.943 V 120.97 H 25.489 V 86.287 H 90.676 V 63.096 H 25.489 V 23.191 H 96.943 V 0 Z" transform="matrix(1.3333333,0,0,-1.3333333,1249.414,333.818)"/>
    <!-- CONSULTING -->
    <path d="M 0,0 H 25.46 C 25.37,-3.24 25.03,-6.24 24.44,-8.99 21.17,-24.45 10.17,-32.18 -8.57,-32.18 h -35.1 c -22.7,0 -34.05,11.35 -34.05,34.06 v 76.05 c 0,22.7 11.35,34.05 34.05,34.05 h 35.1 c 18.74,0 29.75,-7.73 33.01,-23.19 0.59,-2.75 0.93,-5.74 1.02,-8.98 H 0 c 0,5.99 -3.06,8.98 -9.19,8.98 h -33.85 c -6.13,0 -9.19,-2.99 -9.19,-8.98 V 0 c 0,-5.99 3.06,-8.99 9.19,-8.99 h 33.85 c 6.13,0 9.19,3 9.19,8.99" transform="matrix(1.3568,0,0,-1.3333333,566.28,508.14)"/>
    <path d="M 34.055,0 H 70.945 C 93.651,0 105,11.349 105,34.055 V 110.106 C 105,132.812 93.651,144.161 70.945,144.161 H 34.055 C 11.349,144.161 0,132.812 0,110.106 V 34.055 C 0,11.349 11.349,0 34.055,0 Z M 34.472,23.191 H 70.528 C 76.517,23.191 79.511,26.185 79.511,32.174 V 111.987 C 79.511,117.976 76.517,120.97 70.528,120.97 H 34.472 C 28.483,120.97 25.489,117.976 25.489,111.987 V 32.174 C 25.489,26.185 28.483,23.191 34.472,23.191 Z" fill-rule="evenodd" transform="matrix(1.3333333,0,0,-1.3333333,620.83,551.05)"/>
    <path d="M 0,0 V 144.161 H 25.489 L 79.511,46.215 V 144.161 H 105 V 0 H 79.511 L 25.489,97.946 V 0 Z" transform="matrix(1.3333333,0,0,-1.3333333,780.83,551.05)"/>
    <path d="M 0,110.106 C 0,132.812 11.349,144.161 34.055,144.161 H 105 V 120.97 H 34.472 C 28.483,120.97 25.489,117.976 25.489,111.987 V 92.659 C 25.489,86.670 28.483,83.676 34.472,83.676 H 70.945 C 93.651,83.676 105,72.327 105,49.621 V 34.055 C 105,11.349 93.651,0 70.945,0 H 0 V 23.191 H 70.528 C 76.517,23.191 79.511,26.185 79.511,32.174 V 51.502 C 79.511,57.491 76.517,60.485 70.528,60.485 H 34.055 C 11.349,60.485 0,71.834 0,94.540 V 110.106 Z" transform="matrix(1.3333333,0,0,-1.3333333,940.83,551.05)"/>
    <path d="M 0,0 V 110.106 H 25.489 V -1.881 c 0,-5.99 3.063,-8.983 9.194,-8.983 h 42.413 c 6.127,0 9.193,2.993 9.193,8.983 v 111.987 h 25.489 V 0 c 0,-22.706 -11.354,-34.055 -34.055,-34.055 H 34.057 C 11.351,-34.055 0,-22.706 0,0" transform="matrix(1.2525,0,0,-1.3333333,1100.83,505.64)"/>
    <path d="M 0,0 V 144.161 H 25.489 V 23.191 H 105 V 0 Z" transform="matrix(1.3333333,0,0,-1.3333333,1260.83,551.05)"/>
    <path d="M 39.7555,0 V 120.97 H 0 V 144.161 H 105 V 120.97 H 65.2445 V 0 Z" transform="matrix(1.3333333,0,0,-1.3333333,1370.83,551.05)"/>
    <path d="M 0,0 V 144.161 H 25.489 V 0 Z" transform="matrix(1.3333333,0,0,-1.3333333,1530.83,551.05)"/>
    <path d="M 0,0 V 144.161 H 25.489 L 79.511,46.215 V 144.161 H 105 V 0 H 79.511 L 25.489,97.946 V 0 Z" transform="matrix(1.3333333,0,0,-1.3333333,1584.82,551.05)"/>
    <path d="M 0,118.672 C 0,135.665 8.496,144.161 25.489,144.161 H 87 V 120.97 H 25.489 V 23.191 H 71.453 V 63.096 H 50 V 86.287 H 96.942 V 25.489 C 96.942,8.496 88.446,0 71.453,0 H 25.489 C 8.496,0 0,8.496 0,25.489 V 118.672 Z" transform="matrix(1.3333333,0,0,-1.3333333,1744.82,551.05)"/>
  </g>
</svg>
