<svg xmlns="http://www.w3.org/2000/svg" height="24" viewBox="0 -960 960 960" width="24" fill="currentColor"><path d="M480-80q-83 0-156-31.5T197-197q-54-54-85.5-127T80-480q0-83 31.5-156T197-763q54-54 127-85.5T480-880q27 0 53 2.5t53 7.5q-20 30-18 65.5t23 61.5q-22 28-20.5 64t26.5 60q26 24 61 26t62-20q26 19 62.5 22t64.5-19q6 27 8.5 53t.5 54q0 84-31.5 157T780-197q-54 54-127 85.5T480-80Zm-80-160q33 0 56.5-23.5T480-320q0-33-23.5-56.5T400-400q-33 0-56.5 23.5T320-320q0 33 23.5 56.5T400-240Zm40-240q17 0 28.5-11.5T480-520q0-17-11.5-28.5T440-560q-17 0-28.5 11.5T400-520q0 17 11.5 28.5T440-480Zm160 200q17 0 28.5-11.5T640-320q0-17-11.5-28.5T600-360q-17 0-28.5 11.5T560-320q0 17 11.5 28.5T600-280Z"/></svg>
