<svg xmlns="http://www.w3.org/2000/svg" viewBox="0 0 32 32">
  <rect width="32" height="32" rx="5" fill="#003366"/>
  <g transform="translate(-50.14 -13.69) scale(0.1249)">
    <path fill="#ffffff" d="M 0,0 H 25.46 C 25.37,-3.24 25.03,-6.24 24.44,-8.99 21.17,-24.45 10.17,-32.18 -8.57,-32.18 h -35.1 c -22.7,0 -34.05,11.35 -34.05,34.06 v 76.05 c 0,22.7 11.35,34.05 34.05,34.05 h 35.1 c 18.74,0 29.75,-7.73 33.01,-23.19 0.59,-2.75 0.93,-5.74 1.02,-8.98 H 0 c 0,5.99 -3.06,8.98 -9.19,8.98 h -33.85 c -6.13,0 -9.19,-2.99 -9.19,-8.98 V 0 c 0,-5.99 3.06,-8.99 9.19,-8.99 h 33.85 c 6.13,0 9.19,3 9.19,8.99" transform="matrix(1.3333333,0,0,-1.3333333,564.45547,290.91467)"/>
  </g>
</svg>
