<svg xmlns="http://www.w3.org/2000/svg" viewBox="148.04 31.8 110 110">
  <rect x="148.04" y="31.8" width="110" height="110" rx="17" fill="#003366"/>
  <path fill="#FFFFFF" transform="translate(203.04 86.8) scale(0.80) translate(-203.04 -86.8)" d="M 204.363281 131.796875 C 195.714844 131.796875 188.261719 129.917969 182.003906 126.15625 C 175.742188 122.398438 170.917969 117.136719 167.535156 110.375 C 164.160156 103.617188 162.472656 95.757812 162.472656 86.796875 C 162.472656 77.839844 164.160156 69.980469 167.535156 63.21875 C 170.917969 56.460938 175.742188 51.199219 182.003906 47.4375 C 188.261719 43.679688 195.714844 41.796875 204.363281 41.796875 C 214.277344 41.796875 222.605469 44.261719 229.347656 49.1875 C 236.085938 54.105469 240.835938 60.761719 243.597656 69.15625 L 227.160156 73.71875 C 225.554688 68.480469 222.851562 64.414062 219.050781 61.515625 C 215.257812 58.609375 210.363281 57.15625 204.363281 57.15625 C 198.882812 57.15625 194.308594 58.382812 190.644531 60.828125 C 186.988281 63.265625 184.238281 66.703125 182.394531 71.140625 C 180.558594 75.578125 179.644531 80.796875 179.644531 86.796875 C 179.644531 92.796875 180.558594 98.023438 182.394531 102.46875 C 184.238281 106.90625 186.988281 110.34375 190.644531 112.78125 C 194.308594 115.21875 198.882812 116.4375 204.363281 116.4375 C 210.363281 116.4375 215.257812 114.980469 219.050781 112.0625 C 222.851562 109.148438 225.554688 105.085938 227.160156 99.875 L 243.597656 104.4375 C 240.835938 112.84375 236.085938 119.507812 229.347656 124.421875 C 222.605469 129.339844 214.277344 131.796875 204.363281 131.796875 Z"/>
</svg>
